<?xml version="1.0" encoding="utf-8"?>
<!-- Generator: Adobe Illustrator 21.0.2, SVG Export Plug-In . SVG Version: 6.00 Build 0)  -->
<svg version="1.1" id="Layer_1" xmlns="http://www.w3.org/2000/svg" xmlns:xlink="http://www.w3.org/1999/xlink" x="0px" y="0px"
	 viewBox="0 0 259.2 120.6" style="enable-background:new 0 0 259.2 120.6;" xml:space="preserve">
<style type="text/css">
	.st0{fill:#2100FF;}
	.st1{fill:#FFFFFF;}
</style>
<rect class="st0" width="259.2" height="120.6"/>
<path class="st1" d="M171.1,79.6l-3.4-1.2c-1.4-0.4-2.4-0.9-3.2-1.4c-0.7-0.5-1-1.1-0.9-1.8c0.1-0.8,0.5-1.4,1.2-1.8
	c0.7-0.4,1.7-0.6,3-0.6c1.4,0,2.5,0.3,3.3,0.9c0.8,0.6,1.1,1.4,1.1,2.5h5.5c0-1.2-0.2-2.3-0.7-3.3c-0.5-1-1.1-1.8-2-2.5
	c-0.9-0.7-1.9-1.2-3.1-1.6c-1.2-0.4-2.6-0.6-4.1-0.6c-1.5,0-2.8,0.2-4,0.5c-1.1,0.3-2.1,0.8-3,1.4c-0.8,0.6-1.5,1.4-2,2.3
	c-0.5,0.9-0.7,1.8-0.8,2.9c-0.1,3.1,1.8,5.4,5.8,7c2.9,1.1,5,1.9,6.1,2.3c1.1,0.4,1.9,0.9,2.2,1.4c0.3,0.5,0.4,1.1,0.3,1.8
	c-0.2,0.7-0.6,1.2-1.4,1.6c-0.8,0.4-1.9,0.6-3.3,0.5c-1.7-0.1-2.9-0.6-3.7-1.4c-0.8-0.8-1.2-1.9-1.2-3.5h-5.5c0,1.5,0.2,2.9,0.7,4.1
	c0.5,1.2,1.2,2.2,2,3c0.9,0.8,2,1.4,3.3,1.8c1.3,0.4,2.8,0.7,4.3,0.7c1.5,0,2.9-0.2,4.1-0.5c1.2-0.3,2.2-0.8,3.1-1.5
	c0.8-0.7,1.5-1.5,2-2.4c0.5-0.9,0.7-2,0.8-3.4c0-1.8-0.4-3.2-1.2-4.3C175.6,81.7,173.8,80.6,171.1,79.6 M148.1,79.3
	c-0.6,0.6-1.6,0.9-3,0.9H140v-6.9h5.1c1.4,0,2.4,0.3,3,0.9c0.6,0.6,1,1.4,1,2.5C149.1,77.9,148.8,78.7,148.1,79.3 M155.5,94.3
	l-6-9.8c1.6-0.7,2.8-1.7,3.5-2.9c0.8-1.2,1.1-2.9,1.1-4.9c0-1.4-0.2-2.6-0.7-3.6c-0.5-1-1.1-1.8-1.9-2.5c-0.8-0.7-1.9-1.1-3.1-1.5
	c-1.2-0.3-2.5-0.5-4-0.5h-10v25.6h5.5v-9.2h4.3l4.6,9.2H155.5z M113.3,94.3l1.7-5.6h9.3l1.7,5.6h6l-9-25.6h-6.7l-9,25.6H113.3z
	 M116.1,83.7l3.4-10.4h0.3l3.4,10.4H116.1z M86.9,94.3h17.4V89H92.4v-5.4H103v-4.8H92.4v-5.5h11.5v-4.7h-17V94.3z"/>
<path class="st1" d="M211.1,59.8h20.4v-6.2h-14v-6.3h12.5v-5.7h-12.5v-6.5h13.5v-5.5h-20V59.8z M192.1,59.8h6.5V35.2h8.8v-5.5h-24.1
	v5.5h8.8V59.8z M161.8,59.8l2-6.5h10.9l2,6.5h7.1l-10.6-30.2h-7.9l-10.6,30.2H161.8z M165.1,47.4l4-12.2h0.3l4,12.2H165.1z
	 M151.5,29.6h-10.3l-5.7,21.4h-0.3l-5.7-21.4h-10.3v30.2h5.7V35.2h0.3l7.2,24.6h5.9l7.2-24.6h0.3v24.6h5.7V29.6z M106.3,59.8h6.5
	V29.6h-6.5V59.8z M86.7,59.8h6.5V35.2h8.8v-5.5H77.9v5.5h8.8V59.8z M60.5,59.8h20.1v-6.2H67v-24h-6.5V59.8z M30.4,29.6v17.2
	c0,1.2,0,2.3,0.1,3.2c0.1,0.9,0.2,1.7,0.3,2.4c0.1,0.7,0.3,1.3,0.6,1.9c0.2,0.5,0.6,1.1,0.9,1.6c2.1,3,5.5,4.4,10.4,4.4
	s8.3-1.5,10.4-4.4c0.4-0.5,0.7-1.1,0.9-1.6c0.2-0.5,0.4-1.2,0.6-1.9c0.1-0.7,0.2-1.5,0.3-2.4C55,49.1,55,48,55,46.8V29.6h-6.5v16.3
	v1c0,1.6-0.1,2.8-0.4,3.8c-0.3,1-0.9,1.8-1.8,2.5c-0.9,0.7-2.1,1.1-3.6,1.1c-1.4,0-2.6-0.4-3.6-1.1c-0.9-0.7-1.5-1.5-1.8-2.5
	c-0.3-1-0.4-2.2-0.4-3.8v-1V29.6H30.4z"/>
</svg>
